<svg width="44" height="44" viewBox="0 0 44 44" fill="none"
  xmlns="http://www.w3.org/2000/svg">
  <g clip-path="url(#clip0_1_13)">
    <path d="M11.2865 35.0625C11.1337 35.2344 10.9427 35.2057 10.7135 34.9766C10.4653 34.7665 10.4271 34.5851 10.599 34.4323C10.7517 34.2604 10.9427 34.2891 11.1719 34.5182C11.401 34.7283 11.4392 34.9097 11.2865 35.0625ZM10.0833 33.3151C10.2552 33.5443 10.2552 33.7257 10.0833 33.8594C9.93056 33.974 9.76823 33.9071 9.59635 33.6589C9.42448 33.4106 9.42448 33.2387 9.59635 33.1432C9.76823 33.0095 9.93056 33.0668 10.0833 33.3151ZM8.33594 31.5964C8.24045 31.73 8.11632 31.7491 7.96354 31.6536C7.77257 31.5582 7.70573 31.4436 7.76302 31.3099C7.82031 31.2144 7.94444 31.1953 8.13542 31.2526C8.32639 31.3481 8.39323 31.4627 8.33594 31.5964ZM9.22396 32.5703C9.10938 32.704 8.9566 32.6753 8.76563 32.4844C8.59375 32.2743 8.57465 32.1215 8.70833 32.026C8.82292 31.9115 8.97569 31.9401 9.16667 32.112C9.33854 32.322 9.35764 32.4748 9.22396 32.5703ZM12.9193 35.7786C12.8429 36.0078 12.6615 36.0651 12.375 35.9505C12.0503 35.8741 11.9262 35.7309 12.0026 35.5208C12.079 35.3108 12.2604 35.2439 12.5469 35.3203C12.8524 35.4158 12.9766 35.5686 12.9193 35.7786ZM14.724 35.9219C14.724 36.1319 14.5712 36.237 14.2656 36.237C13.941 36.2752 13.7786 36.1701 13.7786 35.9219C13.7786 35.7118 13.9314 35.6068 14.237 35.6068C14.5616 35.5686 14.724 35.6736 14.724 35.9219ZM16.3854 35.6354C16.4236 35.8264 16.2899 35.9601 15.9844 36.0365C15.6788 36.1128 15.5069 36.0365 15.4688 35.8073C15.4306 35.5781 15.5642 35.4349 15.8698 35.3776C16.1753 35.3394 16.3472 35.4253 16.3854 35.6354ZM44 8.25V35.75C44 38.0226 43.1931 39.9657 41.5794 41.5794C39.9657 43.1931 38.0226 44 35.75 44H29.3333C29.0278 44 28.7938 43.9905 28.6315 43.9714C28.4692 43.9523 28.283 43.9045 28.0729 43.8281C27.8628 43.7517 27.7101 43.6133 27.6146 43.4128C27.5191 43.2122 27.4714 42.9497 27.4714 42.625V35.7786C27.4714 33.9262 26.9748 32.5703 25.9818 31.7109C27.0703 31.5964 28.049 31.4245 28.918 31.1953C29.7869 30.9661 30.6845 30.5938 31.6107 30.0781C32.5369 29.5625 33.3103 28.9275 33.931 28.1732C34.5517 27.4188 35.0577 26.4162 35.4492 25.1654C35.8407 23.9145 36.0365 22.4774 36.0365 20.8542C36.0365 18.5434 35.2821 16.5764 33.7734 14.9531C34.48 13.2153 34.4036 11.2674 33.5443 9.10938C33.0095 8.9375 32.2361 9.04253 31.224 9.42448C30.2118 9.80642 29.3333 10.2266 28.5885 10.6849L27.5 11.3724C25.724 10.8759 23.8906 10.6276 22 10.6276C20.1094 10.6276 18.276 10.8759 16.5 11.3724C16.1944 11.1623 15.7886 10.9045 15.2826 10.599C14.7765 10.2934 13.9792 9.92578 12.8906 9.49609C11.8021 9.06641 10.9809 8.9375 10.4271 9.10938C9.58681 11.2674 9.51997 13.2153 10.2266 14.9531C8.71788 16.5764 7.96354 18.5434 7.96354 20.8542C7.96354 22.4774 8.15929 23.9097 8.55078 25.151C8.94227 26.3924 9.44358 27.395 10.0547 28.1589C10.6658 28.9227 11.4345 29.5625 12.3607 30.0781C13.2869 30.5938 14.1845 30.9661 15.0534 31.1953C15.9223 31.4245 16.901 31.5964 17.9896 31.7109C17.2257 32.3984 16.7578 33.3819 16.5859 34.6615C16.1849 34.8524 15.7552 34.9957 15.2969 35.0911C14.8385 35.1866 14.2943 35.2344 13.6641 35.2344C13.0339 35.2344 12.4084 35.0291 11.7878 34.6185C11.1671 34.2079 10.6372 33.6111 10.1979 32.8281C9.83507 32.217 9.37196 31.7205 8.80859 31.3385C8.24523 30.9566 7.77257 30.7274 7.39063 30.651L6.81771 30.5651C6.41667 30.5651 6.13976 30.6081 5.98698 30.694C5.8342 30.7799 5.78646 30.8898 5.84375 31.0234C5.90104 31.1571 5.98698 31.2908 6.10156 31.4245C6.21615 31.5582 6.34028 31.6727 6.47396 31.7682L6.67448 31.9115C7.09462 32.1024 7.50998 32.4653 7.92057 33C8.33116 33.5347 8.63194 34.0217 8.82292 34.4609L9.10938 35.1198C9.35764 35.8455 9.77778 36.4327 10.3698 36.8815C10.9618 37.3303 11.6016 37.6168 12.2891 37.7409C12.9766 37.865 13.6402 37.9319 14.2799 37.9414C14.9197 37.951 15.4497 37.9175 15.8698 37.8411L16.5286 37.7266C16.5286 38.4523 16.5334 39.4358 16.543 40.6771C16.5525 41.9184 16.5573 42.5677 16.5573 42.625C16.5573 43.0451 16.4523 43.365 16.2422 43.5846C16.0321 43.8043 15.822 43.9284 15.612 43.957C15.4019 43.9857 15.0868 44 14.6667 44H8.25C5.97743 44 4.03429 43.1931 2.42057 41.5794C0.806858 39.9657 0 38.0226 0 35.75V8.25C0 5.97743 0.806858 4.03429 2.42057 2.42057C4.03429 0.806858 5.97743 0 8.25 0H35.75C38.0226 0 39.9657 0.806858 41.5794 2.42057C43.1931 4.03429 44 5.97743 44 8.25Z" fill="currentColor"/>
  </g>
  <defs>
    <clipPath id="clip0_1_13">
      <rect width="44" height="44" fill="white"/>
    </clipPath>
  </defs>
</svg>
